<svg height="464pt" viewBox="0 0 464 464" width="464pt" xmlns="http://www.w3.org/2000/svg"><path d="m26.929688 201.480469 13.015624 6.519531 47.976563-24 47.988281 24 47.984375-24 47.992188 24 48.007812-24 47.976563 24 48.023437-24 48.050781 24 13.125-6.550781-5.070312-49.449219h-400zm0 0" fill="#cfdfe8"/><path d="m437.070312 201.449219-13.125 6.550781-48.050781-24-48.023437 24-47.976563-24-48.007812 24-47.992188-24-47.984375 24-47.988281-24-47.976563 24-13.015624-6.519531-5.464844 53.261719 18.480468 9.257812 47.976563-24 47.988281 24 47.984375-24 47.992188 24 48.007812-24 47.976563 24 48.023437-24 48.050781 24 18.589844-9.28125zm0 0" fill="#be2821"/><path d="m442.535156 254.71875-18.589844 9.28125-48.050781-24-48.023437 24-47.976563-24-48.007812 24-47.992188-24-47.984375 24-47.988281-24-47.976563 24-18.480468-9.257812-5.464844 53.273437 23.945312 11.984375 47.976563-24 47.988281 24 47.984375-24 47.992188 24 48.007812-24 47.976563 24 48.023437-24 48.050781 24 24.054688-12.015625zm0 0" fill="#dd3e46"/><path d="m448 307.984375-24.054688 12.015625-48.050781-24-48.023437 24-47.976563-24-48.007812 24-47.992188-24-47.984375 24-47.988281-24-47.976563 24-23.945312-11.984375-5.464844 53.265625 29.410156 14.71875 47.976563-24 47.988281 24 47.984375-24 47.992188 24 48.007812-24 47.976563 24 48.023437-24 48.050781 24 29.519532-14.742188zm0 0" fill="#8b3123"/><path d="m453.464844 361.257812-29.519532 14.742188-48.050781-24-48.023437 24-47.976563-24-48.007812 24-47.992188-24-47.984375 24-47.988281-24-47.976563 24-29.410156-14.71875-5.464844 53.261719 34.875 17.457031 47.976563-24 47.988281 24 47.984375-24 47.992188 24 48.007812-24 47.976563 24 48.023437-24 48.050781 24 34.984376-17.472656zm0 0" fill="#be2821"/><path d="m458.929688 414.527344-34.984376 17.472656-48.050781-24-48.023437 24-47.976563-24-48.007812 24-47.992188-24-47.984375 24-47.988281-24-47.976563 24-34.875-17.457031-5.070312 49.457031h464zm0 0" fill="#dd3e46"/><g fill="#6d1d15"><path d="m79.917969 184.023438 16-.042969.085937 32-16 .042969zm0 0"/><path d="m127.910156 263.976562.09375-32 16 .046876-.09375 32zm0 0"/><path d="m175.898438 184.027344 16-.050782.101562 32-16 .050782zm0 0"/><path d="m223.890625 263.976562.109375-32 16 .054688-.109375 32zm0 0"/><path d="m271.898438 184.027344 16-.050782.101562 32-16 .050782zm0 0"/><path d="m319.878906 263.96875.125-31.996094 16 .0625-.125 32zm0 0"/><path d="m127.910156 375.976562.09375-32 16 .046876-.09375 32zm0 0"/><path d="m223.890625 375.976562.109375-32 16 .054688-.109375 32zm0 0"/><path d="m319.878906 375.96875.125-32 16 .0625-.125 32zm0 0"/><path d="m367.894531 184.027344 16-.054688.109375 32-16 .054688zm0 0"/><path d="m79.914062 272.023438 16-.042969.085938 32-16 .042969zm0 0"/><path d="m175.898438 272.027344 16-.050782.101562 32-16 .050782zm0 0"/><path d="m271.898438 272.027344 16-.050782.101562 32-16 .050782zm0 0"/><path d="m367.890625 272.027344 16-.054688.109375 31.996094-16 .054688zm0 0"/><path d="m79.921875 408.023438 16-.042969.085937 32-16 .042969zm0 0"/><path d="m175.898438 408.027344 16-.050782.101562 32-16 .050782zm0 0"/><path d="m271.898438 408.027344 16-.050782.101562 32-16 .050782zm0 0"/><path d="m367.890625 408.023438 16-.054688.109375 32-16 .054688zm0 0"/></g><path d="m392 56v-8c.574219-6.523438-1.769531-12.96875-6.402344-17.597656-4.628906-4.632813-11.074218-6.976563-17.597656-6.402344h-8c-4.742188-15.199219-16-24-40-24-17.816406 0-36.144531 7.457031-40 24h-8c-6.417969-.179688-12.628906 2.289062-17.167969 6.832031-4.542969 4.539063-7.011719 10.75-6.832031 17.167969v8zm0 0" fill="#7fcac9"/><path d="m184 96v-13.089844c0-20.574218-20.601562-26.183594-37.335938-26.183594h-6.214843c-4.308594-20.253906-22.90625-34.226562-43.5625-32.726562-20.640625-1.464844-39.214844 12.492188-43.550781 32.726562h-6.222657c-16.714843 0-31.113281 8.503907-31.113281 26.183594v13.089844zm0 0" fill="#7fcac9"/></svg>