<svg width="21" height="21" viewBox="0 0 21 21" fill="none" xmlns="http://www.w3.org/2000/svg">
<path d="M16.0371 11.1152C13.3188 11.1152 11.1152 13.3188 11.1152 16.0371C11.1152 18.7554 13.3188 21 16.0371 21C18.7554 21 21 18.7554 21 16.0371C21 13.3188 18.7554 11.1152 16.0371 11.1152ZM16.0371 15.4219C17.0549 15.4219 17.8828 16.2498 17.8828 17.2676C17.8828 18.0686 17.3669 18.7451 16.6523 19V19.7285H15.4219V19C14.7073 18.7451 14.1914 18.0686 14.1914 17.2676H15.4219C15.4219 17.607 15.6977 17.8828 16.0371 17.8828C16.3766 17.8828 16.6523 17.607 16.6523 17.2676C16.6523 16.9281 16.3766 16.6523 16.0371 16.6523C15.0193 16.6523 14.1914 15.8244 14.1914 14.8066C14.1914 14.0056 14.7073 13.3291 15.4219 13.0743V12.3457H16.6523V13.0743C17.3669 13.3291 17.8828 14.0056 17.8828 14.8066H16.6523C16.6523 14.4672 16.3766 14.1914 16.0371 14.1914C15.6977 14.1914 15.4219 14.4672 15.4219 14.8066C15.4219 15.1461 15.6977 15.4219 16.0371 15.4219Z" fill="#000230"/>
<path d="M4.69141 3.73242C4.13912 3.73242 3.69141 4.18014 3.69141 4.73242V7.6543C3.69141 8.20658 4.13912 8.6543 4.69141 8.6543H11.3457C11.898 8.6543 12.3457 8.20658 12.3457 7.6543V4.73242C12.3457 4.18014 11.898 3.73242 11.3457 3.73242H4.69141ZM7.38281 6.80859C7.38281 7.14838 7.10736 7.42383 6.76758 7.42383H5.53711C5.19732 7.42383 4.92188 7.14838 4.92188 6.80859C4.92188 6.46881 5.19732 6.19336 5.53711 6.19336H6.76758C7.10736 6.19336 7.38281 6.46881 7.38281 6.80859Z" fill="#000230"/>
<path d="M1 0C0.447716 0 0 0.447715 0 1V18.7285C0 19.2808 0.447715 19.7285 1 19.7285H9.13548C9.96159 19.7285 10.4699 18.7438 10.2037 17.9618C9.99798 17.3576 9.88477 16.7115 9.88477 16.0371C9.88477 14.9481 10.1799 13.9333 10.683 13.0488C10.8542 12.7479 10.65 12.3457 10.3038 12.3457C10.0724 12.3457 9.88477 12.1581 9.88477 11.9266V11.7305C9.88477 11.3907 10.1602 11.1152 10.5 11.1152H12.3353C12.341 11.1152 12.3457 11.1199 12.3457 11.1257C12.3457 11.1343 12.3556 11.1392 12.3625 11.134C13.1384 10.5506 14.048 10.1364 15.0417 9.96822C15.5863 9.87604 16.0371 9.43705 16.0371 8.88477V1C16.0371 0.447715 15.5894 0 15.0371 0H1ZM4.92188 16.6523C4.92188 16.9921 4.64643 17.2676 4.30664 17.2676H3.07617C2.73639 17.2676 2.46094 16.9921 2.46094 16.6523C2.46094 16.3126 2.73639 16.0371 3.07617 16.0371H4.30664C4.64643 16.0371 4.92188 16.3126 4.92188 16.6523ZM4.92188 14.1914C4.92188 14.5312 4.64643 14.8066 4.30664 14.8066H3.07617C2.73639 14.8066 2.46094 14.5312 2.46094 14.1914C2.46094 13.8516 2.73639 13.5762 3.07617 13.5762H4.30664C4.64643 13.5762 4.92188 13.8516 4.92188 14.1914ZM4.92188 11.7305C4.92188 12.0703 4.64643 12.3457 4.30664 12.3457H3.07617C2.73639 12.3457 2.46094 12.0703 2.46094 11.7305C2.46094 11.3907 2.73639 11.1152 3.07617 11.1152H4.30664C4.64643 11.1152 4.92188 11.3907 4.92188 11.7305ZM8.6543 16.6523C8.6543 16.9921 8.37885 17.2676 8.03906 17.2676H6.76758C6.42779 17.2676 6.15234 16.9921 6.15234 16.6523C6.15234 16.3126 6.42779 16.0371 6.76758 16.0371H8.03906C8.37885 16.0371 8.6543 16.3126 8.6543 16.6523ZM8.6543 14.1914C8.6543 14.5312 8.37885 14.8066 8.03906 14.8066H6.76758C6.42779 14.8066 6.15234 14.5312 6.15234 14.1914C6.15234 13.8516 6.42779 13.5762 6.76758 13.5762H8.03906C8.37885 13.5762 8.6543 13.8516 8.6543 14.1914ZM8.6543 11.7305C8.6543 12.0703 8.37885 12.3457 8.03906 12.3457H6.76758C6.42779 12.3457 6.15234 12.0703 6.15234 11.7305C6.15234 11.3907 6.42779 11.1152 6.76758 11.1152H8.03906C8.37885 11.1152 8.6543 11.3907 8.6543 11.7305ZM13.5762 8.88477C13.5762 9.43705 13.1285 9.88477 12.5762 9.88477H3.46094C2.90865 9.88477 2.46094 9.43705 2.46094 8.88477V3.50195C2.46094 2.94967 2.90865 2.50195 3.46094 2.50195H12.5762C13.1285 2.50195 13.5762 2.94967 13.5762 3.50195V8.88477Z" fill="#000230"/>
<circle cx="16" cy="16" r="4" fill="#000230"/>
</svg>
