<svg width="20" height="21" viewBox="0 0 20 21" fill="none" xmlns="http://www.w3.org/2000/svg">
<path d="M18.5994 9.62145L15.2244 5.6827C14.8681 5.2677 14.3481 5.02832 13.8013 5.02832H12.5C11.8094 5.02832 11.25 5.5877 11.25 6.27832V11.9033C11.25 12.2483 10.97 12.5283 10.625 12.5283H1.25V14.4033C1.25 15.0939 1.80937 15.6533 2.5 15.6533H3.125C3.125 17.0321 4.24625 18.1533 5.625 18.1533C7.00375 18.1533 8.125 17.0321 8.125 15.6533H11.25C11.25 17.0321 12.3713 18.1533 13.75 18.1533C15.1287 18.1533 16.25 17.0321 16.25 15.6533H17.5C18.1906 15.6533 18.75 15.0939 18.75 14.4033V10.0289C18.75 9.87957 18.6963 9.7352 18.5994 9.62145ZM5.625 16.9033C4.93563 16.9033 4.375 16.3427 4.375 15.6533C4.375 15.0227 4.9125 14.4033 5.625 14.4033C6.33437 14.4033 6.875 15.0202 6.875 15.6533C6.875 16.3427 6.31437 16.9033 5.625 16.9033ZM13.75 16.9033C13.0606 16.9033 12.5 16.3427 12.5 15.6533C12.5 15.0227 13.0375 14.4033 13.75 14.4033C14.4594 14.4033 15 15.0202 15 15.6533C15 16.3427 14.4394 16.9033 13.75 16.9033ZM16.6056 10.0283H13.125V6.90332H14.225C14.32 6.90332 14.4094 6.94645 14.4688 7.02082L16.7069 9.81832C16.7744 9.9027 16.7144 10.0283 16.6056 10.0283Z" fill="#000230"/>
<path d="M10 3.15332V10.6533C10 10.9983 9.72 11.2783 9.375 11.2783H1.875C1.53 11.2783 1.25 10.9983 1.25 10.6533V3.15332C1.25 2.80832 1.53 2.52832 1.875 2.52832H3.75V6.5902C3.75 6.8552 4.05875 7.0002 4.2625 6.8302L5.625 5.65332L6.9875 6.8302C7.19125 6.99957 7.5 6.8552 7.5 6.5902V2.52832H9.375C9.72 2.52832 10 2.80832 10 3.15332Z" fill="#000230"/>
</svg>
