<svg width="20" height="25" viewBox="0 0 20 25" fill="none" xmlns="http://www.w3.org/2000/svg">
<path d="M2.26562 12.3252C2.26562 11.7729 2.71334 11.3252 3.26562 11.3252H5.48438C6.03666 11.3252 6.48438 11.7729 6.48438 12.3252V14.5908C6.48438 15.1431 6.03666 15.5908 5.48438 15.5908H3.26563C2.71334 15.5908 2.26562 15.1431 2.26562 14.5908V12.3252Z" fill="#000230"/>
<path d="M7.89062 12.3252C7.89062 11.7729 8.33834 11.3252 8.89062 11.3252H11.1094C11.6617 11.3252 12.1094 11.7729 12.1094 12.3252V15.9971C12.1094 16.5494 11.6617 16.9971 11.1094 16.9971H8.89063C8.33834 16.9971 7.89062 16.5494 7.89062 15.9971V12.3252Z" fill="#000230"/>
<path d="M10 5.7002C10.3883 5.7002 10.7031 5.3854 10.7031 4.99707C10.7031 4.60875 10.3883 4.29395 10 4.29395C9.61167 4.29395 9.29688 4.60875 9.29688 4.99707C9.29688 5.3854 9.61167 5.7002 10 5.7002Z" fill="#000230"/>
<path d="M19.1406 1.02832C19.1406 0.476036 18.6929 0.0283203 18.1406 0.0283203H1.85937C1.30709 0.0283203 0.859375 0.476036 0.859375 1.02832V8.91895C0.859375 9.47123 1.30709 9.91895 1.85938 9.91895H18.1406C18.6929 9.91895 19.1406 9.47123 19.1406 8.91895V1.02832ZM6.48438 4.99707C6.48438 5.3854 6.16958 5.7002 5.78125 5.7002C5.39292 5.7002 5.07812 5.3854 5.07812 4.99707C5.07812 4.60875 5.39292 4.29395 5.78125 4.29395C6.16958 4.29395 6.48438 4.60875 6.48438 4.99707ZM10 7.10645C8.83684 7.10645 7.89062 6.16023 7.89062 4.99707C7.89062 3.83391 8.83684 2.8877 10 2.8877C11.1632 2.8877 12.1094 3.83391 12.1094 4.99707C12.1094 6.16023 11.1632 7.10645 10 7.10645ZM14.9219 4.99707C14.9219 5.3854 14.6071 5.7002 14.2188 5.7002C13.8304 5.7002 13.5156 5.3854 13.5156 4.99707C13.5156 4.60875 13.8304 4.29395 14.2188 4.29395C14.6071 4.29395 14.9219 4.60875 14.9219 4.99707Z" fill="#000230"/>
<path d="M18.3311 20.2397C18.67 19.7654 18.3309 19.1064 17.7479 19.1064C17.3521 19.1064 17.0312 18.7856 17.0312 18.3897V12.3252C17.0312 11.7729 16.5835 11.3252 16.0312 11.3252H15.2188C14.6665 11.3252 14.2188 11.7729 14.2188 12.3252V18.3897C14.2188 18.7856 13.8979 19.1064 13.5021 19.1064C12.9191 19.1064 12.58 19.7654 12.9189 20.2397L14.8113 22.8891C15.2101 23.4474 16.0399 23.4474 16.4387 22.8891L18.3311 20.2397Z" fill="#000230"/>
</svg>
