<?xml version="1.0" encoding="iso-8859-1"?>
<!-- Uploaded to: SVG Repo, www.svgrepo.com, Generator: SVG Repo Mixer Tools -->
<svg fill="#000000" height="800px" width="800px" version="1.1" id="Layer_1" xmlns="http://www.w3.org/2000/svg" xmlns:xlink="http://www.w3.org/1999/xlink" 
	 viewBox="0 0 511.999 511.999" xml:space="preserve">
<g>
	<g>
		<path d="M329.315,138.729c-1.904-2.048-4.61-5.943-5.209-8.275c-0.957-3.733-1.495-7.257-1.748-10.817
			c-1.154-0.345,3.267,0.449-68.97-11.644l41.227-61.316c2.953-4.391,2.418-10.251-1.281-14.036
			c-3.698-3.785-9.546-4.457-14.002-1.604l-70.519,45.092l-25.371-64.997c-1.773-4.54-6.284-7.399-11.147-7.083
			c-4.862,0.324-8.953,3.765-10.106,8.5l-16.646,68.347L83.037,25.173c-3.694-3.293-9.116-3.762-13.319-1.153
			c-4.205,2.609-6.191,7.674-4.88,12.447l24.463,89.054l-64.058-6.455c-4.746-0.48-9.286,2.12-11.274,6.465
			c-1.987,4.346-0.991,9.474,2.481,12.758l49.983,47.286l-62.824,57.76c-3.895,3.582-4.741,9.405-2.029,13.947
			c2.712,4.542,8.237,6.558,13.242,4.826l72.715-25.188l5.184,56.713c0.442,4.823,3.942,8.813,8.666,9.877
			c4.727,1.066,9.598-1.037,12.066-5.207l27.441-46.371l35.998,65.233c2.388,4.326,7.342,6.582,12.195,5.506
			c4.546-1.008,8.18-4.684,8.788-11.102l6.314-93.001l42.064,7.881l22.537-39.654l-18.629-21.103L329.315,138.729z M255.472,205.456
			l-59.514-11.151c-3.139-0.588-6.372,0.194-8.894,2.147c-2.521,1.954-4.088,4.891-4.305,8.073l-4.657,68.605l-27.089-49.09
			c-1.936-3.508-5.603-5.71-9.609-5.77c-0.057-0.001-0.112-0.002-0.169-0.002c-3.942,0-7.598,2.08-9.609,5.48l-19.804,33.464
			l-3.339-36.529c-0.313-3.419-2.181-6.505-5.067-8.366c-2.884-1.86-6.463-2.292-9.71-1.168l-35.438,12.275l32.097-29.508
			c2.279-2.097,3.586-5.044,3.608-8.142c0.021-3.096-1.243-6.063-3.493-8.192L55.59,144.573l47.674,4.803
			c3.662,0.37,7.274-1.092,9.649-3.904c2.376-2.812,3.213-6.615,2.238-10.166L96.385,66.994l48.178,42.948
			c2.927,2.609,7.006,3.494,10.751,2.327c3.744-1.165,6.602-4.209,7.529-8.019l12.669-52.015l17.446,44.696
			c1.216,3.115,3.765,5.522,6.945,6.557c3.18,1.036,6.658,0.592,9.474-1.209l36.734-23.488l-20.926,31.123
			c-2.118,3.15-2.491,7.16-0.99,10.646c1.5,3.486,4.669,5.972,8.413,6.598l41.122,6.884l-46.625,15.929
			c-3.532,1.206-6.227,4.097-7.184,7.706c-0.957,3.607-0.048,7.455,2.422,10.252L255.472,205.456z"/>
	</g>
</g>
<g>
	<g>
		<path d="M461.3,133.858c-10.623-5.559-23.115-0.386-27.32,8.55l-32.465,62.039l-76.567,8.023l46.312-17.41l-36.295-20.629
			c-13.684-7.776-30.955-2.879-38.639,10.63c-0.001,0.002-0.002,0.003-0.003,0.006c0,0-68.97,121.352-72.33,127.265l0.06-0.01
			c-5.01,9.658-2.958,21.551,5.012,28.96l55.504,51.584v90.818c0,13.415,10.875,24.291,24.291,24.291s24.292-10.875,24.292-24.291
			v-99.709c0-5.4-0.635-10.37-4.535-15.823c-3.702-4.16-29.053-32.649-32.488-36.51c5.739,4.798,64.123,49.245,64.123,49.245
			l3.095,103.523c0.4,13.392,11.576,23.953,25.006,23.554c13.409-0.401,23.955-11.596,23.554-25.006l-3.564-119.224
			c-0.284-9.554-6.148-18.053-14.979-21.713c-21.493-8.907-25.133-10.417-50.922-21.104l35.596-62.632l-46.059-5.844l84.55-8.859
			c6.75-0.709,12.69-4.758,15.825-10.748l37.496-71.656C475.035,151.276,471.198,139.038,461.3,133.858z"/>
	</g>
</g>
<g>
	<g>
		<path d="M508.854,200.597c-5.983-9.445-18.487-12.25-27.932-6.268l-9.699,6.144l-21.65,41.372
			c-6.175,11.8-17.77,19.675-31.017,21.064c-2.92,0.307-3.226,0.11-19.134-1.909c14.661,5.477,12.687,4.739,23.232,8.678
			c5.799,2.166,12.445,1.603,17.916-1.863l62.018-39.285C512.03,222.547,514.837,210.041,508.854,200.597z"/>
	</g>
</g>
<g>
	<g>
		<path d="M423.006,124.053l-26.051,5.177l0.258,16.849c0.117,7.621-5.224,14.231-12.7,15.716l-3.013,0.599
			c-7.872,1.565-15.67-2.982-18.118-10.713l-4.7-14.845l-16.563,3.292c0.058,4.511,0.842,8.974,2.307,13.213
			c3.213,9.302,9.682,17.521,18.91,22.766c9.028,5.131,19.153,6.536,28.61,4.722l24.819-47.429c1.738-3.322,3.903-6.323,6.402-8.956
			C423.115,124.313,423.058,124.183,423.006,124.053z"/>
	</g>
</g>
<g>
	<g>
		<path d="M432.667,109.219l-0.001-0.002c-3.16-25.424-24.804-44.036-49.781-44.036c-2.067,0-4.155,0.128-6.258,0.389
			c-30.04,3.731-49.975,33.011-42.458,62.304c0.445,1.736,2.191,2.809,3.949,2.459l27.66-5.497l7.507,23.711
			c0.83,2.62,3.496,4.196,6.191,3.661l3.013-0.599c2.553-0.508,4.379-2.767,4.339-5.37l-0.39-25.508l44.267-8.797
			C431.97,111.683,432.825,110.498,432.667,109.219z"/>
	</g>
</g>
</svg>