<svg width="22" height="22" viewBox="0 0 22 22" fill="none" xmlns="http://www.w3.org/2000/svg">
<path d="M15.3265 17.4822C14.9551 17.4856 14.6037 17.314 14.3785 17.0186C14.3029 17.0276 14.2266 17.0289 14.1506 17.023V21.4108L15.0935 20.7037C15.2331 20.5988 15.4253 20.5988 15.565 20.7037L16.5078 21.4108V17.023C16.4293 17.0295 16.3503 17.028 16.272 17.0186C16.0472 17.3132 15.6969 17.4849 15.3265 17.4822Z" fill="#000230"/>
<path d="M0 18.2679C0 18.9187 0.52771 19.4464 1.17857 19.4464H13.3665V17.875H0L0 18.2679Z" fill="#000230"/>
<path d="M17.0147 14.3472C16.91 14.31 16.8258 14.23 16.7834 14.1273C16.7408 14.0245 16.7437 13.9087 16.7916 13.8081C16.8659 13.6524 16.8344 13.4667 16.7128 13.3443C16.591 13.2219 16.4055 13.1893 16.2493 13.2628C16.149 13.3107 16.033 13.3138 15.9301 13.2714C15.8271 13.2288 15.7473 13.1446 15.7099 13.0397C15.6526 12.877 15.4987 12.7681 15.3263 12.7681C15.1536 12.7681 14.9998 12.877 14.9424 13.0397C14.9052 13.1446 14.8252 13.2288 14.7224 13.2714C14.6194 13.3138 14.5033 13.3107 14.403 13.2628C14.2467 13.1891 14.061 13.2219 13.9394 13.3443C13.8176 13.4669 13.7861 13.6528 13.8609 13.8085C13.9085 13.9088 13.9116 14.0247 13.869 14.1273C13.8266 14.23 13.7428 14.3098 13.638 14.3472C13.4752 14.4051 13.3662 14.5593 13.3662 14.7322C13.3662 14.905 13.4752 15.0592 13.638 15.1172C13.7428 15.1546 13.8268 15.2344 13.8692 15.3372C13.9118 15.4398 13.9087 15.5559 13.8609 15.6562C13.7865 15.8119 13.818 15.9976 13.9398 16.12C14.0614 16.2424 14.2469 16.275 14.403 16.2015C14.5033 16.1536 14.6194 16.1505 14.7224 16.1929C14.8252 16.2355 14.9052 16.3197 14.9424 16.4246C14.9998 16.5873 15.1536 16.6963 15.3263 16.6963C15.4987 16.6963 15.6526 16.5873 15.7099 16.4246C15.7473 16.3197 15.8271 16.2355 15.9301 16.1929C16.033 16.1505 16.149 16.1536 16.2493 16.2015C16.4055 16.275 16.591 16.2424 16.7128 16.12C16.8344 15.9976 16.8659 15.8119 16.7916 15.6562C16.7437 15.5557 16.7408 15.4398 16.7834 15.337C16.8258 15.2344 16.91 15.1544 17.0147 15.1172C17.1772 15.0588 17.2858 14.9048 17.2858 14.7322C17.2858 14.5595 17.1772 14.4055 17.0147 14.3472Z" fill="#000230"/>
<path d="M3.14282 1.7678V17.0892H13.3665V16.6528C13.1158 16.3944 12.9967 16.0359 13.0429 15.6789C12.7507 15.4516 12.58 15.1021 12.58 14.7321C12.58 14.3621 12.7507 14.0126 13.0429 13.7852C12.9965 13.4185 13.1221 13.0507 13.3832 12.7889C13.6443 12.5271 14.0116 12.4005 14.3786 12.4457C14.6053 12.1532 14.9544 11.9821 15.3245 11.9821C15.6945 11.9821 16.0438 12.1532 16.2705 12.4457C16.6375 12.4003 17.0048 12.5269 17.2661 12.7887C17.5272 13.0507 17.6526 13.4185 17.6062 13.7852C17.8984 14.0126 18.0691 14.3621 18.0691 14.7321C18.0691 15.1021 17.8984 15.4516 17.6062 15.6789C17.6517 16.0307 17.5362 16.3843 17.292 16.6413V19.3741C17.4157 19.4199 17.5466 19.4443 17.6785 19.4464C18.3294 19.4464 18.8571 18.9187 18.8571 18.2678V1.7678C18.8581 1.64542 18.8703 1.52342 18.8941 1.40315C18.901 1.36593 18.9125 1.33064 18.9216 1.294C18.9409 1.21401 18.9655 1.13536 18.9946 1.05825C19.01 1.01911 19.0265 0.982091 19.0441 0.944301C19.0777 0.87275 19.1153 0.80331 19.1573 0.736171C19.1776 0.703177 19.1964 0.6698 19.2197 0.638341C19.2308 0.622227 19.239 0.604579 19.2507 0.589233H4.32139C3.67053 0.589233 3.14282 1.11694 3.14282 1.7678ZM16.8928 10.0178H10.2143V9.23209H16.8928V10.0178ZM16.8928 8.05352H7.85711V7.26781H16.8928V8.05352ZM12.1785 2.94638H13.75V3.73209H12.1785V2.94638ZM8.24997 2.94638H11.3928V3.73209H8.24997V2.94638ZM7.07139 4.91066H14.9285V5.69638H7.07139V4.91066ZM5.10711 7.26781H7.07139V8.05352H5.10711V7.26781ZM5.10711 9.23209H9.42854V10.0178H5.10711V9.23209ZM5.10711 11.1964H12.9643V11.9821H5.10711V11.1964ZM5.10711 13.1607H11.7857V13.9464H5.10711V13.1607Z" fill="#000230"/>
<path d="M20.8214 0.589233C20.1705 0.589233 19.6428 1.11694 19.6428 1.7678V2.16066H22V1.7678C22 1.11694 21.4723 0.589233 20.8214 0.589233Z" fill="#000230"/>
</svg>
