<svg width="19" height="19" viewBox="0 0 19 19" fill="none" xmlns="http://www.w3.org/2000/svg">
<g clip-path="url(#clip0)">
<path d="M18.8326 3.7749L13.0703 9.5001L18.8326 15.2253C18.9368 15.0076 19 14.7669 19 14.5099V4.49033C19 4.23328 18.9368 3.99262 18.8326 3.7749Z" fill="#000230"/>
<path d="M17.3302 2.82031H1.67002C1.41296 2.82031 1.17231 2.88351 0.95459 2.98768L8.31943 10.3154C8.97062 10.9666 10.0296 10.9666 10.6808 10.3154L18.0456 2.98768C17.8279 2.88351 17.5872 2.82031 17.3302 2.82031Z" fill="#000230"/>
<path d="M0.167363 3.7749C0.0631973 3.99262 0 4.23328 0 4.49033V14.5099C0 14.7669 0.0631973 15.0076 0.167363 15.2253L5.92967 9.5001L0.167363 3.7749Z" fill="#000230"/>
<path d="M12.2833 10.2871L11.4679 11.1025C10.3829 12.1876 8.61731 12.1876 7.53226 11.1025L6.7169 10.2871L0.95459 16.0123C1.17231 16.1165 1.41296 16.1797 1.67002 16.1797H17.3302C17.5872 16.1797 17.8279 16.1165 18.0456 16.0123L12.2833 10.2871Z" fill="#000230"/>
</g>
<defs>
<clipPath id="clip0">
<rect width="19" height="19" fill="white"/>
</clipPath>
</defs>
</svg>
