<svg width="22" height="22" viewBox="0 0 22 22" fill="none" xmlns="http://www.w3.org/2000/svg">
<g clip-path="url(#clip0)">
<path d="M20.0695 9.13407L11.4891 0.552467C10.9831 0.0476694 10.1645 0.053642 9.66503 0.551823C9.16276 1.05537 9.16276 1.87299 9.66503 2.37589L18.2466 10.9569C18.7494 11.4596 19.5667 11.4596 20.0695 10.9569C20.5736 10.4528 20.5736 9.6381 20.0695 9.13407Z" fill="white"/>
<path d="M9.0284 3.56226L8.96382 3.88598C8.50891 6.16153 7.40332 8.32333 5.90796 10.0755L10.5764 14.7439C12.3283 13.2488 14.4603 12.1136 16.736 11.6581L17.0603 11.5935L9.0284 3.56226Z" fill="white"/>
<path d="M5.05208 11.0425L1.86151 14.2324C1.10763 14.9863 1.10449 16.2102 1.86151 16.9672L3.68434 18.7901C4.43823 19.5439 5.66215 19.547 6.41918 18.7901L9.60944 15.5998L5.05208 11.0425ZM5.50781 16.0559C5.25605 16.3076 4.84815 16.3076 4.5964 16.0559C4.34464 15.8041 4.34464 15.3962 4.5964 15.1445L5.50781 14.233C5.75956 13.9813 6.16747 13.9813 6.41922 14.233C6.67097 14.4848 6.67097 14.8927 6.41922 15.1445L5.50781 16.0559Z" fill="white"/>
<path d="M12.3005 19.133L13.1773 18.2562C13.9343 17.4993 13.9318 16.2754 13.1773 15.5221L12.5261 14.8704C12.1661 15.1121 11.8224 15.3749 11.4882 15.6552L12.2659 16.4341C12.517 16.684 12.5188 17.0906 12.2659 17.3449L11.3746 18.2361L10.0649 16.9671L8.24194 18.79L11.1663 21.6237C11.6653 22.124 12.4847 22.1269 12.9885 21.6231C13.4914 21.1202 13.4914 20.3025 12.9885 19.7996L12.3005 19.133Z" fill="white"/>
<path d="M14.9043 0C14.548 0 14.2598 0.288278 14.2598 0.644533V1.9336C14.2598 2.28985 14.548 2.57813 14.9043 2.57813C15.2606 2.57813 15.5488 2.28985 15.5488 1.9336V0.644533C15.5488 0.288278 15.2606 0 14.9043 0Z" fill="white"/>
<path d="M20.0606 5.15625H18.7715C18.4152 5.15625 18.127 5.44453 18.127 5.80078C18.127 6.15704 18.4152 6.44532 18.7715 6.44532H20.0606C20.4168 6.44532 20.7051 6.15704 20.7051 5.80078C20.7051 5.44453 20.4168 5.15625 20.0606 5.15625Z" fill="white"/>
<path d="M19.2272 1.47788C18.9754 1.22612 18.5675 1.22612 18.3158 1.47788L17.0267 2.76694C16.775 3.0187 16.775 3.4266 17.0267 3.67836C17.2785 3.93011 17.6864 3.93015 17.9381 3.67836L19.2272 2.38929C19.4789 2.13754 19.4789 1.72963 19.2272 1.47788Z" fill="white"/>
</g>
<defs>
<clipPath id="clip0">
<rect width="22" height="22" fill="white"/>
</clipPath>
</defs>
</svg>
