<svg width="17" height="16" viewBox="0 0 17 16" fill="none" xmlns="http://www.w3.org/2000/svg">
<path d="M15.6359 10.5022C14.5951 10.5022 13.5732 10.349 12.6047 10.0478C12.1302 9.89542 11.5469 10.0352 11.2572 10.3151L9.34575 11.6732C7.12898 10.5595 5.76349 9.27475 4.59633 7.20404L5.99684 5.45188C6.3607 5.10988 6.49121 4.61029 6.33485 4.14154C6.01344 3.22529 5.85017 2.26392 5.85017 1.28392C5.85021 0.575958 5.23826 0 4.4861 0H1.36412C0.611956 0 0 0.575958 0 1.28387C0 9.39846 7.01418 16 15.6359 16C16.3881 16 17 15.424 17 14.7161V11.786C17 11.0781 16.388 10.5022 15.6359 10.5022Z" fill="#000230"/>
</svg>
