<svg width="21" height="21" viewBox="0 0 21 21" fill="none" xmlns="http://www.w3.org/2000/svg">
<path d="M4.96289 19.7695C4.96289 20.449 5.51377 20.9999 6.19336 20.9999C6.87295 20.9999 7.42383 20.449 7.42383 19.7695V12.0034C7.06043 12.2153 6.64359 12.3457 6.19336 12.3457C5.74313 12.3457 5.32629 12.2153 4.96289 12.0034V19.7695Z" fill="#000230"/>
<path d="M8.6543 19.4112C8.96343 19.126 9.69671 18.5391 10.5 18.5391C11.3059 18.5391 12.0363 19.1242 12.3457 19.4105V10.7562C12.0363 10.4699 11.3059 9.88477 10.5 9.88477C9.69671 9.88477 8.96343 10.4717 8.6543 10.7569V19.4112Z" fill="#000230"/>
<path d="M12.3457 9.22921V0.574916C11.8464 0.270293 11.213 0 10.5 0C9.78698 0 9.15358 0.270293 8.6543 0.574916V9.22921C9.15358 8.92459 9.78698 8.6543 10.5 8.6543C11.213 8.6543 11.8464 8.92459 12.3457 9.22921Z" fill="#000230"/>
<path d="M3.73242 1.23047C3.73242 0.550881 3.18154 0 2.50195 0C0.744557 0 0.0691113 1.5531 0.0432715 1.61921C0.0144375 1.69128 0 1.76818 0 1.8457V9.66316C0.511506 9.23926 1.44535 8.6543 2.50195 8.6543C2.94714 8.6543 3.36 8.76319 3.73242 8.91589V1.23047Z" fill="#000230"/>
<path d="M0 11.4224V19.1543C0 19.4475 0.207867 19.6969 0.495059 19.7545C0.782865 19.8098 1.07125 19.656 1.18539 19.3862C1.22145 19.2991 1.60675 18.5391 2.50195 18.5391C2.87827 18.5391 3.31464 18.6676 3.73242 18.8401V10.2903C3.38637 10.0748 2.95858 9.88477 2.50195 9.88477C1.21989 9.88477 0.119643 11.2916 0 11.4224Z" fill="#000230"/>
<path d="M18.498 0C17.8185 0 17.2676 0.550881 17.2676 1.23047V8.91589C17.64 8.76319 18.0529 8.6543 18.498 8.6543C19.5547 8.6543 20.4885 9.23926 21 9.66316V1.8457C21 1.76818 20.9856 1.69128 20.9567 1.61921C20.9309 1.5531 20.2554 0 18.498 0Z" fill="#000230"/>
<path d="M18.498 9.88477C18.0414 9.88477 17.6136 10.0748 17.2676 10.2903V18.8401C17.6854 18.6676 18.1217 18.5391 18.498 18.5391C19.3933 18.5391 19.7786 19.2991 19.8146 19.3862C19.9288 19.656 20.2171 19.8098 20.5049 19.7545C20.7921 19.6969 21 19.4475 21 19.1543V11.4224C19.7605 10.0674 19.0978 9.88477 18.498 9.88477Z" fill="#000230"/>
<path d="M13.5762 19.7695C13.5762 20.449 14.1271 20.9999 14.8066 20.9999C15.4862 20.9999 16.0371 20.449 16.0371 19.7695V12.0034C15.6737 12.2153 15.2569 12.3457 14.8066 12.3457C14.3564 12.3457 13.9396 12.2153 13.5762 12.0034V19.7695Z" fill="#000230"/>
<path d="M4.96289 9.88471C4.96289 10.5642 5.51377 11.1152 6.19336 11.1152C6.87295 11.1152 7.42383 10.5642 7.42383 9.88471V2.11865C7.06043 2.33058 6.64359 2.46089 6.19336 2.46089C5.74313 2.46089 5.32629 2.33058 4.96289 2.11865V9.88471Z" fill="#000230"/>
<path d="M13.5762 9.88471C13.5762 10.5642 14.1271 11.1152 14.8066 11.1152C15.4862 11.1152 16.0371 10.5642 16.0371 9.88471V2.11865C15.6737 2.33058 15.2569 2.46089 14.8066 2.46089C14.3564 2.46089 13.9396 2.33058 13.5762 2.11865V9.88471Z" fill="#000230"/>
</svg>
