<svg width="21" height="21" viewBox="0 0 21 21" fill="none" xmlns="http://www.w3.org/2000/svg">
<path d="M6.56172 0.656494C6.02205 0.656494 5.57863 1.10052 5.57863 1.6402V1.96705H13.1261C14.0275 1.96705 14.7661 2.71019 14.7661 3.60959V7.22091H16.0786V1.6402C16.0786 1.10052 15.6326 0.656494 15.093 0.656494H6.56172ZM4.59233 2.62331C4.05266 2.62331 3.60924 3.06992 3.60924 3.60959V7.22091H4.9211V6.2173C4.9211 6.06133 5.0567 5.90457 5.25948 5.90457C6.15204 5.89155 6.85974 5.19526 6.88792 4.31842C6.88067 4.07212 7.03436 3.93772 7.21733 3.93772H10.4992C10.6861 3.93794 10.835 4.09392 10.8267 4.28061C10.835 5.15488 11.5176 5.85761 12.3827 5.90071C12.6022 5.90071 12.806 6.01182 12.7955 6.23395V7.22091H14.1092V3.60959C14.1092 3.06992 13.6658 2.62331 13.1261 2.62331H4.59233ZM2.62614 4.59269C1.54307 4.59269 0.659905 5.47398 0.656753 6.55633C0.656733 6.55839 0.656733 6.56047 0.656753 6.56253V18.3757C0.656753 19.4607 1.54113 20.3444 2.62614 20.3444H18.3749C18.9145 20.3444 19.358 19.8984 19.358 19.3587V17.0625H14.7661C13.1438 17.0625 11.8136 15.7323 11.8136 14.11C11.8136 12.4877 13.1438 11.1576 14.7661 11.1576H19.358V8.85872C19.358 8.31906 18.9145 7.875 18.3749 7.87502H2.62614C1.89334 7.87502 1.313 7.29533 1.313 6.56253C1.313 5.82972 1.89334 5.24937 2.62614 5.24937H2.95299V4.59311L2.62614 4.59269ZM16.7342 4.59269V5.24895H17.0617C17.2492 5.24895 17.3906 5.391 17.3918 5.58091V7.21834H18.048V5.57837C18.048 5.57754 18.048 5.5767 18.048 5.57587C18.0447 5.03867 17.6014 4.59277 17.0617 4.59277L16.7342 4.59269ZM7.52174 4.59519C7.37631 5.59642 6.57867 6.39503 5.57735 6.5402V7.22148H12.1392V6.53956C11.137 6.39516 10.3384 5.59706 10.1929 4.59519H7.52174ZM14.7661 11.8139C13.4993 11.8139 12.4699 12.8434 12.4699 14.1102C12.4699 15.377 13.4993 16.4064 14.7661 16.4064H19.358C19.8976 16.4064 20.3442 15.9623 20.3442 15.4227V12.797C20.3442 12.2573 19.8976 11.8139 19.358 11.8139L14.7661 11.8139ZM14.7661 13.1238C15.3058 13.1238 15.7492 13.5705 15.7492 14.1102C15.7492 14.6498 15.3058 15.0932 14.7661 15.0932C14.2265 15.0932 13.7798 14.6498 13.7798 14.1102C13.7798 13.5705 14.2265 13.1238 14.7661 13.1238Z" fill="#000230"/>
</svg>
